<?xml version="1.0" encoding="UTF-8"?>
<svg id="_レイヤー_1" data-name="レイヤー 1" xmlns="http://www.w3.org/2000/svg" xmlns:xlink="http://www.w3.org/1999/xlink" viewBox="0 0 945.64 186.42">
  <defs>
    <style>
      .cls-1 {
        fill: url(#_新規グラデーションスウォッチ_2);
      }

      .cls-2 {
        fill: #fff;
      }

      .cls-3 {
        fill: url(#_名称未設定グラデーション_183);
      }
    </style>
    <linearGradient id="_新規グラデーションスウォッチ_2" data-name="新規グラデーションスウォッチ 2" x1="627.44" y1="96.1" x2="933.44" y2="96.1" gradientUnits="userSpaceOnUse">
      <stop offset="0" stop-color="#ed874b"/>
      <stop offset="1" stop-color="#efba5b"/>
    </linearGradient>
    <linearGradient id="_名称未設定グラデーション_183" data-name="名称未設定グラデーション 183" x1="5.21" y1="94.16" x2="168.95" y2="94.16" gradientUnits="userSpaceOnUse">
      <stop offset="0" stop-color="#ed874b"/>
      <stop offset=".99" stop-color="#efba5b"/>
    </linearGradient>
  </defs>
  <g>
    <path d="M226.18,144.19c-3.74,0-6.58-.98-8.54-2.94-1.96-1.95-2.94-4.85-2.94-8.67V59.88c0-3.91.98-6.91,2.94-9,1.95-2.09,4.53-3.13,7.73-3.13,2.85,0,5.07.53,6.67,1.6,1.6,1.07,3.38,2.85,5.34,5.34l42.29,52.83h-3.74v-48.29c0-3.73.95-6.58,2.87-8.54s4.74-2.94,8.47-2.94,6.56.98,8.47,2.94c1.91,1.96,2.87,4.8,2.87,8.54v73.9c0,3.38-.89,6.07-2.67,8.07-1.78,2-4.18,3-7.21,3s-5.4-.56-7.13-1.67c-1.74-1.11-3.58-2.87-5.54-5.27l-42.29-52.96h3.74v48.29c0,3.82-.96,6.72-2.87,8.67-1.92,1.96-4.74,2.94-8.47,2.94Z"/>
    <path d="M331.7,144.46c-5.07,0-9.54-.93-13.41-2.8-3.87-1.87-6.89-4.42-9.07-7.67s-3.27-6.96-3.27-11.14c0-4.8,1.25-8.58,3.74-11.34,2.49-2.76,6.49-4.74,12.01-5.94,5.51-1.2,12.85-1.8,22.01-1.8h7.34v11.21h-7.34c-3.47,0-6.34.24-8.6.73-2.27.49-3.94,1.25-5,2.27-1.07,1.02-1.6,2.33-1.6,3.93,0,2.05.73,3.74,2.2,5.07,1.46,1.33,3.58,2,6.34,2,2.22,0,4.2-.49,5.94-1.47,1.74-.98,3.14-2.33,4.2-4.07,1.07-1.73,1.6-3.75,1.6-6.07v-15.48c0-3.2-.82-5.47-2.47-6.8-1.65-1.33-4.47-2-8.47-2-2.13,0-4.53.25-7.2.73-2.67.49-5.65,1.36-8.94,2.6-2.4.89-4.45,1.02-6.14.4s-3-1.69-3.93-3.2c-.93-1.51-1.38-3.16-1.33-4.93.04-1.78.62-3.47,1.74-5.07,1.11-1.6,2.82-2.85,5.13-3.74,4.27-1.6,8.21-2.67,11.81-3.2,3.6-.53,6.91-.8,9.94-.8,7.29,0,13.32,1.05,18.08,3.14,4.76,2.09,8.32,5.29,10.67,9.6,2.36,4.31,3.53,9.85,3.53,16.61v26.95c0,3.91-.93,6.89-2.8,8.94-1.87,2.05-4.58,3.07-8.14,3.07s-6.43-1.02-8.34-3.07-2.87-5.02-2.87-8.94v-3.47l.8,1.87c-.44,2.85-1.46,5.29-3.06,7.34-1.6,2.05-3.69,3.65-6.27,4.8-2.58,1.15-5.51,1.73-8.8,1.73Z"/>
    <path d="M419.07,144.46c-6.67,0-12.16-1.02-16.48-3.07-4.31-2.05-7.53-5.14-9.67-9.27-2.13-4.13-3.2-9.31-3.2-15.54v-21.74h-4.53c-2.85,0-5.05-.76-6.61-2.27-1.55-1.51-2.33-3.69-2.33-6.53s.78-5,2.33-6.47c1.56-1.47,3.76-2.2,6.61-2.2h4.53v-8.27c0-3.91,1.02-6.89,3.07-8.94,2.04-2.05,4.98-3.07,8.8-3.07s6.76,1.02,8.81,3.07c2.04,2.05,3.07,5.03,3.07,8.94v8.27h10.94c2.93,0,5.18.73,6.74,2.2,1.55,1.47,2.33,3.63,2.33,6.47s-.78,5.02-2.33,6.53c-1.56,1.51-3.8,2.27-6.74,2.27h-10.94v20.94c0,3.29.78,5.72,2.33,7.27,1.55,1.56,4.02,2.33,7.4,2.33,1.24,0,2.44-.14,3.6-.4,1.15-.27,2.22-.4,3.2-.4,1.42-.09,2.58.33,3.47,1.27.89.93,1.33,3.05,1.33,6.34,0,2.67-.4,4.91-1.2,6.74-.8,1.82-2.22,3.14-4.27,3.94-1.25.44-2.93.82-5.07,1.13-2.13.31-3.87.47-5.2.47Z"/>
    <path d="M455.49,66.69c-4.18,0-7.4-.98-9.67-2.94-2.27-1.95-3.4-4.8-3.4-8.54s1.14-6.45,3.4-8.4c2.27-1.96,5.49-2.94,9.67-2.94s7.65.98,9.87,2.94c2.23,1.96,3.33,4.76,3.33,8.4s-1.11,6.58-3.33,8.54c-2.22,1.96-5.51,2.94-9.87,2.94ZM455.49,144.19c-3.74,0-6.63-1.11-8.67-3.33-2.05-2.22-3.07-5.42-3.07-9.61v-42.15c0-4.18,1.02-7.38,3.07-9.6,2.04-2.22,4.93-3.33,8.67-3.33s6.78,1.11,8.87,3.33c2.09,2.22,3.14,5.42,3.14,9.6v42.15c0,4.18-1.02,7.38-3.07,9.61s-5.02,3.33-8.94,3.33Z"/>
    <path d="M510.32,144.19c-3.12,0-5.76-.78-7.94-2.33-2.18-1.56-3.98-3.89-5.4-7l-19.08-43.62c-1.07-2.67-1.42-5.16-1.07-7.47.35-2.31,1.49-4.16,3.4-5.54,1.91-1.38,4.56-2.07,7.94-2.07,2.85,0,5.14.65,6.87,1.93,1.74,1.29,3.31,3.8,4.74,7.54l13.47,34.68h-4.53l14.14-34.82c1.42-3.65,3.02-6.12,4.8-7.4,1.78-1.29,4.22-1.93,7.34-1.93,2.67,0,4.83.69,6.47,2.07,1.64,1.38,2.64,3.23,3,5.54.35,2.31-.09,4.8-1.33,7.47l-19.48,43.76c-1.33,3.11-3.09,5.42-5.27,6.94-2.18,1.51-4.87,2.27-8.07,2.27Z"/>
    <path d="M587.56,144.46c-8,0-14.92-1.4-20.74-4.2-5.83-2.8-10.29-6.78-13.41-11.94-3.11-5.16-4.67-11.25-4.67-18.27s1.49-12.69,4.47-17.81c2.98-5.11,7.07-9.11,12.27-12.01,5.21-2.89,11.14-4.34,17.81-4.34,4.89,0,9.34.78,13.34,2.33,4,1.56,7.43,3.82,10.27,6.81,2.85,2.98,5,6.56,6.47,10.74,1.46,4.18,2.2,8.85,2.2,14.01,0,1.78-.49,3.09-1.47,3.94s-2.53,1.27-4.67,1.27h-40.82v-11.21h29.61l-2.14,1.74c0-3.29-.44-5.96-1.33-8-.89-2.05-2.2-3.6-3.93-4.67-1.74-1.07-3.89-1.6-6.47-1.6-2.76,0-5.14.65-7.14,1.94-2,1.29-3.53,3.18-4.6,5.67-1.07,2.49-1.6,5.6-1.6,9.34v1.2c0,6.32,1.4,10.83,4.2,13.54,2.8,2.71,7.14,4.07,13.01,4.07,1.95,0,4.2-.24,6.74-.73,2.53-.49,4.96-1.18,7.27-2.07s4.31-1.04,6-.47c1.69.58,3,1.56,3.93,2.93.93,1.38,1.44,2.93,1.54,4.67.08,1.74-.31,3.42-1.2,5.07s-2.36,2.91-4.4,3.8c-3.11,1.42-6.43,2.49-9.94,3.2-3.51.71-7.05,1.07-10.6,1.07Z"/>
    <g>
      <path class="cls-1" d="M639.85,144.19c-3.91,0-6.96-1.09-9.13-3.27-2.18-2.18-3.27-5.31-3.27-9.4V61.62c0-4.09,1.09-7.22,3.27-9.41,2.18-2.18,5.36-3.27,9.54-3.27h44.42c3.2,0,5.6.8,7.2,2.4,1.6,1.6,2.4,3.91,2.4,6.94s-.8,5.49-2.4,7.14c-1.6,1.65-4,2.47-7.2,2.47h-32.68v18.94h29.75c3.11,0,5.49.8,7.13,2.4,1.65,1.6,2.47,3.92,2.47,6.94s-.82,5.47-2.47,7.07c-1.65,1.6-4.02,2.4-7.13,2.4h-29.75v25.88c0,8.45-4.05,12.67-12.14,12.67Z"/>
      <path class="cls-1" d="M728.02,144.46c-8.54,0-14.83-2.29-18.87-6.87-4.05-4.58-6.07-11.49-6.07-20.74v-57.1c0-3.91,1.02-6.89,3.07-8.94,2.04-2.05,4.93-3.07,8.67-3.07s6.78,1.02,8.87,3.07,3.14,5.03,3.14,8.94v56.3c0,3.29.65,5.69,1.93,7.2,1.29,1.51,2.95,2.27,5,2.27.62,0,1.27-.07,1.93-.2s1.4-.24,2.2-.33c1.51,0,2.64.58,3.4,1.74.75,1.16,1.13,3.51,1.13,7.07,0,3.11-.62,5.45-1.87,7-1.25,1.56-3.16,2.56-5.74,3-.71.09-1.74.22-3.07.4-1.33.18-2.58.27-3.74.27Z"/>
      <path class="cls-1" d="M782.05,144.46c-7.3,0-13.65-1.38-19.08-4.13-5.42-2.76-9.65-6.71-12.67-11.87-3.03-5.16-4.54-11.25-4.54-18.27,0-5.34.84-10.12,2.54-14.34,1.69-4.22,4.13-7.82,7.34-10.8,3.2-2.98,7.02-5.25,11.47-6.81,4.45-1.55,9.43-2.33,14.94-2.33,7.29,0,13.65,1.38,19.07,4.14,5.42,2.76,9.63,6.69,12.61,11.81,2.98,5.11,4.47,11.23,4.47,18.34,0,5.25-.84,10-2.53,14.27-1.69,4.27-4.12,7.89-7.27,10.87-3.16,2.98-6.98,5.25-11.47,6.8-4.49,1.56-9.45,2.33-14.87,2.33ZM782.05,126.98c2.4,0,4.53-.6,6.4-1.8,1.87-1.2,3.31-3.02,4.34-5.47,1.02-2.45,1.54-5.63,1.54-9.54,0-5.96-1.16-10.25-3.47-12.87-2.31-2.62-5.25-3.93-8.8-3.93-2.4,0-4.54.58-6.4,1.73-1.87,1.16-3.33,2.96-4.4,5.4-1.07,2.45-1.6,5.67-1.6,9.67,0,5.87,1.15,10.14,3.47,12.81s5.29,4,8.94,4Z"/>
      <path class="cls-1" d="M855.95,144.19c-3.03,0-5.65-.73-7.87-2.2s-4-3.76-5.34-6.87l-18.14-43.89c-1.16-2.75-1.56-5.27-1.2-7.53.35-2.27,1.44-4.09,3.27-5.47,1.82-1.38,4.34-2.07,7.54-2.07,2.76,0,5.02.65,6.8,1.93,1.78,1.29,3.38,3.8,4.8,7.54l12.81,33.62h-2.8l13.48-36.15c.89-2.4,2.11-4.16,3.67-5.27,1.55-1.11,3.53-1.67,5.94-1.67,2.58,0,4.62.58,6.13,1.73,1.51,1.16,2.71,2.89,3.61,5.2l13.47,36.15h-2.4l12.94-34.42c1.24-3.38,2.85-5.67,4.8-6.87,1.95-1.2,4.05-1.8,6.27-1.8,3.02,0,5.34.71,6.94,2.13,1.6,1.42,2.51,3.29,2.73,5.6.22,2.31-.24,4.8-1.4,7.47l-18.01,43.62c-1.25,3.11-2.98,5.42-5.21,6.94-2.23,1.51-4.85,2.27-7.87,2.27s-5.76-.76-7.94-2.27c-2.18-1.51-3.94-3.82-5.27-6.94l-14.67-36.68h9.74l-13.87,36.42c-1.25,3.2-2.93,5.58-5.07,7.14-2.14,1.56-4.76,2.33-7.87,2.33Z"/>
    </g>
  </g>
  <g>
    <rect class="cls-3" x="5.21" y="12.3" width="163.74" height="163.74" rx="38.99" ry="38.99"/>
    <g>
      <rect class="cls-2" x="27.36" y="69.1" width="15.61" height="34.68" rx="3.9" ry="3.9"/>
      <rect class="cls-2" x="131.19" y="78.82" width="15.61" height="22.19" rx="3.9" ry="3.9"/>
      <rect class="cls-2" x="49.11" y="45.38" width="15.61" height="82.81" rx="3.9" ry="3.9"/>
      <rect class="cls-2" x="69.63" y="60.12" width="15.61" height="51.69" rx="3.9" ry="3.9"/>
      <rect class="cls-2" x="112.2" y="57.14" width="15.61" height="55.98" rx="3.9" ry="3.9"/>
      <rect class="cls-2" x="90.15" y="36.94" width="15.61" height="97.42" rx="3.9" ry="3.9"/>
      <circle class="cls-2" cx="82.96" cy="143.85" r="7.54"/>
    </g>
  </g>
</svg>