<?xml version="1.0" encoding="UTF-8"?>
<svg id="_レイヤー_1" data-name="レイヤー 1" xmlns="http://www.w3.org/2000/svg" xmlns:xlink="http://www.w3.org/1999/xlink" viewBox="0 0 743.35 217.08">
  <defs>
    <style>
      .cls-1 {
        fill: #666;
        font-family: Nunito-Bold, Nunito;
        font-size: 50.68px;
        font-weight: 700;
      }

      .cls-2 {
        fill: url(#_新規グラデーションスウォッチ_2);
      }

      .cls-3 {
        fill: #fff;
      }

      .cls-4 {
        fill: url(#_名称未設定グラデーション_183);
      }

      .cls-5 {
        letter-spacing: .1em;
      }

      .cls-6 {
        letter-spacing: .1em;
      }

      .cls-7 {
        letter-spacing: .1em;
      }

      .cls-8 {
        letter-spacing: .09em;
      }

      .cls-9 {
        letter-spacing: .08em;
      }

      .cls-10 {
        letter-spacing: .09em;
      }
    </style>
    <linearGradient id="_新規グラデーションスウォッチ_2" data-name="新規グラデーションスウォッチ 2" x1="510.98" y1="44.27" x2="734.55" y2="44.27" gradientUnits="userSpaceOnUse">
      <stop offset="0" stop-color="#ed874b"/>
      <stop offset="1" stop-color="#efba5b"/>
    </linearGradient>
    <linearGradient id="_名称未設定グラデーション_183" data-name="名称未設定グラデーション 183" x1="6.65" y1="103.57" x2="170.39" y2="103.57" gradientUnits="userSpaceOnUse">
      <stop offset="0" stop-color="#ed874b"/>
      <stop offset=".99" stop-color="#efba5b"/>
    </linearGradient>
  </defs>
  <g>
    <path d="M217.82,79.4c-2.73,0-4.81-.72-6.24-2.15-1.43-1.43-2.15-3.54-2.15-6.34V17.8c0-2.86.72-5.05,2.15-6.58,1.43-1.52,3.31-2.29,5.65-2.29,2.08,0,3.7.39,4.87,1.17,1.17.78,2.47,2.08,3.9,3.9l30.9,38.59h-2.73V17.32c0-2.73.7-4.81,2.09-6.24s3.46-2.15,6.19-2.15,4.79.72,6.19,2.15,2.1,3.51,2.1,6.24v53.99c0,2.47-.65,4.44-1.95,5.9-1.3,1.46-3.06,2.19-5.27,2.19s-3.94-.41-5.21-1.22c-1.27-.81-2.62-2.1-4.05-3.85l-30.89-38.69h2.73v35.28c0,2.79-.7,4.91-2.09,6.34-1.4,1.43-3.46,2.15-6.19,2.15Z"/>
    <path d="M294.91,79.6c-3.7,0-6.97-.68-9.8-2.05-2.82-1.36-5.04-3.23-6.63-5.6s-2.39-5.08-2.39-8.14c0-3.51.91-6.27,2.73-8.28,1.82-2.01,4.74-3.46,8.77-4.34,4.03-.88,9.39-1.32,16.08-1.32h5.36v8.19h-5.36c-2.54,0-4.63.18-6.29.54-1.66.36-2.88.91-3.65,1.66-.78.75-1.17,1.71-1.17,2.87,0,1.5.54,2.73,1.61,3.7,1.07.97,2.62,1.46,4.63,1.46,1.62,0,3.07-.36,4.34-1.07,1.27-.71,2.29-1.71,3.07-2.97.78-1.27,1.17-2.74,1.17-4.43v-11.31c0-2.34-.6-4-1.8-4.97s-3.27-1.46-6.19-1.46c-1.56,0-3.31.18-5.26.54-1.95.36-4.13.99-6.53,1.9-1.76.65-3.25.75-4.48.29s-2.19-1.23-2.87-2.34c-.68-1.1-1.01-2.31-.97-3.61.03-1.3.45-2.54,1.27-3.7.81-1.17,2.06-2.08,3.75-2.73,3.12-1.17,6-1.95,8.63-2.34,2.63-.39,5.05-.59,7.26-.59,5.33,0,9.73.77,13.21,2.29s6.08,3.87,7.8,7.02c1.72,3.15,2.58,7.2,2.58,12.13v19.69c0,2.86-.68,5.03-2.04,6.53-1.37,1.49-3.35,2.24-5.95,2.24s-4.69-.75-6.09-2.24-2.09-3.67-2.09-6.53v-2.53l.58,1.36c-.32,2.08-1.07,3.87-2.24,5.36-1.17,1.5-2.7,2.66-4.58,3.51-1.88.84-4.03,1.27-6.43,1.27Z"/>
    <path d="M358.75,79.6c-4.87,0-8.89-.75-12.04-2.24-3.15-1.49-5.51-3.75-7.07-6.77-1.56-3.02-2.34-6.81-2.34-11.35v-15.89h-3.31c-2.08,0-3.69-.55-4.83-1.66-1.13-1.1-1.71-2.7-1.71-4.77s.57-3.65,1.71-4.73c1.14-1.07,2.74-1.61,4.83-1.61h3.31v-6.04c0-2.86.75-5.03,2.24-6.53,1.49-1.49,3.64-2.24,6.43-2.24s4.94.75,6.43,2.24c1.49,1.49,2.24,3.67,2.24,6.53v6.04h7.99c2.14,0,3.78.53,4.92,1.61,1.13,1.07,1.71,2.65,1.71,4.73s-.57,3.67-1.71,4.77c-1.14,1.11-2.78,1.66-4.92,1.66h-7.99v15.3c0,2.4.57,4.18,1.71,5.31,1.13,1.14,2.94,1.71,5.41,1.71.91,0,1.79-.1,2.63-.29.84-.19,1.62-.29,2.34-.29,1.04-.06,1.88.24,2.54.93.65.68.97,2.23.97,4.63,0,1.95-.29,3.59-.88,4.92-.58,1.33-1.62,2.29-3.12,2.88-.91.32-2.14.6-3.7.83-1.56.23-2.82.34-3.8.34Z"/>
    <path d="M385.36,22.78c-3.05,0-5.41-.72-7.07-2.15-1.66-1.43-2.49-3.51-2.49-6.24s.83-4.71,2.49-6.14c1.66-1.43,4.01-2.15,7.07-2.15s5.59.72,7.21,2.15c1.63,1.43,2.44,3.48,2.44,6.14s-.81,4.81-2.44,6.24c-1.62,1.43-4.03,2.15-7.21,2.15ZM385.36,79.4c-2.73,0-4.84-.81-6.34-2.44-1.5-1.62-2.24-3.96-2.24-7.02v-30.8c0-3.05.75-5.39,2.24-7.02,1.49-1.62,3.61-2.44,6.34-2.44s4.95.81,6.48,2.44c1.53,1.62,2.29,3.96,2.29,7.02v30.8c0,3.06-.75,5.39-2.24,7.02s-3.67,2.44-6.53,2.44Z"/>
    <path d="M425.41,79.4c-2.28,0-4.21-.57-5.8-1.71-1.6-1.14-2.91-2.84-3.95-5.12l-13.94-31.87c-.78-1.95-1.04-3.77-.78-5.46.26-1.69,1.09-3.04,2.49-4.05,1.4-1.01,3.33-1.51,5.8-1.51,2.08,0,3.75.47,5.02,1.41,1.27.94,2.42,2.78,3.46,5.51l9.84,25.34h-3.31l10.33-25.44c1.04-2.66,2.21-4.47,3.51-5.41,1.3-.94,3.08-1.41,5.36-1.41,1.95,0,3.53.5,4.73,1.51,1.2,1.01,1.93,2.36,2.19,4.05.26,1.69-.07,3.51-.97,5.46l-14.23,31.97c-.97,2.27-2.26,3.96-3.85,5.07-1.6,1.1-3.56,1.66-5.9,1.66Z"/>
    <path d="M481.84,79.6c-5.85,0-10.9-1.02-15.16-3.07-4.26-2.05-7.52-4.95-9.8-8.72-2.27-3.77-3.41-8.22-3.41-13.35s1.09-9.27,3.27-13.01c2.18-3.73,5.17-6.66,8.97-8.77,3.8-2.11,8.14-3.17,13.01-3.17,3.57,0,6.82.57,9.75,1.71,2.92,1.14,5.43,2.79,7.5,4.97,2.08,2.18,3.65,4.79,4.73,7.84,1.07,3.06,1.61,6.47,1.61,10.23,0,1.3-.36,2.26-1.07,2.88s-1.85.93-3.41.93h-29.82v-8.19h21.64l-1.56,1.27c0-2.4-.32-4.35-.97-5.85-.65-1.49-1.61-2.63-2.87-3.41-1.27-.78-2.84-1.17-4.72-1.17-2.02,0-3.75.47-5.22,1.41-1.46.94-2.58,2.32-3.36,4.14-.78,1.82-1.17,4.09-1.17,6.82v.88c0,4.61,1.02,7.91,3.07,9.89,2.05,1.98,5.22,2.97,9.5,2.97,1.43,0,3.07-.18,4.92-.54,1.85-.36,3.62-.86,5.31-1.51s3.15-.76,4.39-.34,2.19,1.14,2.87,2.14c.68,1.01,1.05,2.14,1.12,3.41.06,1.27-.23,2.5-.88,3.7s-1.72,2.13-3.22,2.78c-2.27,1.04-4.69,1.82-7.26,2.34-2.57.52-5.15.78-7.75.78Z"/>
    <g>
      <path class="cls-2" d="M520.05,79.4c-2.86,0-5.08-.8-6.67-2.39-1.6-1.59-2.39-3.88-2.39-6.87V19.07c0-2.99.8-5.28,2.39-6.87,1.59-1.59,3.91-2.39,6.97-2.39h32.46c2.34,0,4.09.58,5.26,1.76,1.17,1.17,1.76,2.86,1.76,5.07s-.59,4.01-1.76,5.21c-1.17,1.2-2.92,1.8-5.26,1.8h-23.88v13.84h21.73c2.27,0,4.01.58,5.21,1.75,1.2,1.17,1.8,2.86,1.8,5.07s-.6,4-1.8,5.16c-1.2,1.17-2.94,1.76-5.21,1.76h-21.73v18.91c0,6.17-2.96,9.26-8.87,9.26Z"/>
      <path class="cls-2" d="M584.47,79.6c-6.24,0-10.84-1.67-13.79-5.02-2.96-3.34-4.44-8.4-4.44-15.15V17.71c0-2.86.75-5.03,2.24-6.53,1.49-1.49,3.61-2.24,6.34-2.24s4.95.75,6.48,2.24,2.29,3.67,2.29,6.53v41.13c0,2.4.47,4.16,1.41,5.26.94,1.11,2.16,1.66,3.65,1.66.45,0,.93-.05,1.41-.15s1.02-.18,1.61-.24c1.1,0,1.93.42,2.49,1.27.55.85.83,2.57.83,5.16,0,2.27-.45,3.98-1.36,5.12-.91,1.14-2.31,1.87-4.19,2.19-.52.06-1.27.16-2.24.29-.97.13-1.88.19-2.73.19Z"/>
      <path class="cls-2" d="M623.94,79.6c-5.33,0-9.97-1.01-13.94-3.02-3.96-2.01-7.05-4.91-9.26-8.67-2.21-3.77-3.32-8.22-3.32-13.35,0-3.9.62-7.39,1.85-10.48,1.23-3.09,3.02-5.72,5.36-7.89,2.34-2.18,5.13-3.83,8.38-4.97,3.25-1.13,6.89-1.71,10.92-1.71,5.33,0,9.97,1.01,13.93,3.02s7.04,4.89,9.21,8.63c2.17,3.74,3.26,8.2,3.26,13.4,0,3.83-.62,7.31-1.85,10.43-1.24,3.12-3.01,5.77-5.31,7.94-2.31,2.18-5.1,3.83-8.38,4.97s-6.91,1.71-10.87,1.71ZM623.94,66.83c1.75,0,3.31-.44,4.68-1.32,1.37-.88,2.42-2.21,3.17-4s1.12-4.11,1.12-6.97c0-4.35-.85-7.49-2.54-9.41-1.69-1.91-3.83-2.87-6.43-2.87-1.76,0-3.32.42-4.68,1.27-1.37.85-2.44,2.16-3.22,3.95s-1.17,4.14-1.17,7.07c0,4.29.84,7.41,2.53,9.36s3.87,2.92,6.53,2.92Z"/>
      <path class="cls-2" d="M677.94,79.4c-2.21,0-4.13-.54-5.75-1.61s-2.92-2.74-3.9-5.02l-13.25-32.07c-.85-2.01-1.14-3.85-.88-5.51.26-1.66,1.05-2.99,2.39-4,1.33-1.01,3.17-1.51,5.51-1.51,2.01,0,3.67.47,4.97,1.41,1.3.94,2.47,2.78,3.51,5.51l9.36,24.56h-2.05l9.85-26.41c.65-1.75,1.54-3.04,2.68-3.85,1.13-.81,2.58-1.22,4.34-1.22,1.88,0,3.38.42,4.48,1.27,1.1.85,1.98,2.11,2.63,3.8l9.84,26.41h-1.76l9.46-25.14c.91-2.47,2.08-4.14,3.51-5.02s2.96-1.32,4.58-1.32c2.21,0,3.9.52,5.07,1.56,1.17,1.04,1.84,2.4,1.99,4.09.16,1.69-.18,3.51-1.02,5.46l-13.16,31.87c-.91,2.27-2.18,3.96-3.8,5.07s-3.54,1.66-5.75,1.66-4.21-.55-5.8-1.66c-1.6-1.1-2.88-2.79-3.85-5.07l-10.72-26.8h7.12l-10.13,26.61c-.91,2.34-2.14,4.08-3.7,5.21s-3.48,1.71-5.75,1.71Z"/>
    </g>
  </g>
  <text class="cls-1" transform="translate(209.43 149.16)"><tspan class="cls-5" x="0" y="0">AI </tspan><tspan class="cls-8" x="80.94" y="0">L</tspan><tspan class="cls-5" x="113.73" y="0">ANG</tspan><tspan class="cls-7" x="241.84" y="0">U</tspan><tspan class="cls-9" x="284.06" y="0">A</tspan><tspan class="cls-6" x="326.08" y="0">GE</tspan></text>
  <text class="cls-1" transform="translate(209.43 205.21)"><tspan class="cls-6" x="0" y="0">L</tspan><tspan class="cls-10" x="33.55" y="0">E</tspan><tspan class="cls-5" x="68.22" y="0">ARNING</tspan></text>
  <rect class="cls-4" x="6.65" y="21.7" width="163.74" height="163.74" rx="38.99" ry="38.99"/>
  <g>
    <rect class="cls-3" x="28.8" y="82.4" width="15.61" height="34.68" rx="3.9" ry="3.9"/>
    <rect class="cls-3" x="132.64" y="92.13" width="15.61" height="22.19" rx="3.9" ry="3.9"/>
    <rect class="cls-3" x="50.56" y="58.68" width="15.61" height="82.81" rx="3.9" ry="3.9"/>
    <rect class="cls-3" x="71.08" y="73.42" width="15.61" height="51.69" rx="3.9" ry="3.9"/>
    <rect class="cls-3" x="113.65" y="70.45" width="15.61" height="55.98" rx="3.9" ry="3.9"/>
    <rect class="cls-3" x="91.6" y="50.25" width="15.61" height="97.42" rx="3.9" ry="3.9"/>
    <circle class="cls-3" cx="84.4" cy="157.16" r="7.54"/>
  </g>
</svg>